<?xml version="1.0" encoding="UTF-8" standalone="no"?>
<!-- Created with Inkscape (http://www.inkscape.org/) -->

<svg
   width="512"
   height="512"
   viewBox="0 0 135.46667 135.46667"
   version="1.1"
   id="svg1"
   inkscape:version="1.4 (e7c3feb100, 2024-10-09)"
   sodipodi:docname="drawing.svg"
   xmlns:inkscape="http://www.inkscape.org/namespaces/inkscape"
   xmlns:sodipodi="http://sodipodi.sourceforge.net/DTD/sodipodi-0.dtd"
   xmlns="http://www.w3.org/2000/svg"
   xmlns:svg="http://www.w3.org/2000/svg">
  <sodipodi:namedview
     id="namedview1"
     pagecolor="#838383"
     bordercolor="#eeeeee"
     borderopacity="1"
     inkscape:showpageshadow="0"
     inkscape:pageopacity="0"
     inkscape:pagecheckerboard="0"
     inkscape:deskcolor="#d1d1d1"
     inkscape:document-units="px"
     showborder="false"
     inkscape:clip-to-page="false"
     inkscape:zoom="0.64315667"
     inkscape:cx="-286.86634"
     inkscape:cy="693.45467"
     inkscape:window-width="2558"
     inkscape:window-height="1413"
     inkscape:window-x="1920"
     inkscape:window-y="265"
     inkscape:window-maximized="1"
     inkscape:current-layer="layer1" />
  <defs
     id="defs1" />
  <g
     inkscape:label="Layer 1"
     inkscape:groupmode="layer"
     id="layer1"
     transform="translate(-8.0855897,-12.308393)">
    <g
       id="g1"
       transform="matrix(1.0658164,0,0,1.0658164,-33.086017,-7.6926276)">
      <path
         id="path10-6"
         style="fill:#005500;fill-opacity:1;stroke:none;stroke-width:0.380867;stroke-linecap:round;stroke-opacity:0.4"
         d="m 165.71627,58.32371 c -0.66814,-3.01125 -26.93834,-13.73188 -34.38485,-12.48252 -0.70993,0.10187 -1.40776,0.23605 -2.09279,0.39917 4.44742,-7.69966 0.75133,-22.54777 -1.25396,-23.61095 -1.90914,-1.0122 -18.51942,3.55045 -23.35499,11.11579 -1.04801,1.63959 -1.74786,3.38386 -2.11726,5.13818 -2.54168,-4.64044 -3.39927,-8.94729 -4.58483,-8.93953 -2.3757,0.0156 -14.36569,11.58411 -14.47413,20.29277 -0.0191,1.53909 0.19493,3.02085 0.60887,4.41044 0.48166,1.61718 2.56664,4.3779 5.00569,6.089 2.08282,1.46122 3.41802,2.14931 7.15791,2.9692 9.45422,1.68011 10.92521,3.26089 11.29458,4.81027 0.32872,1.61303 -8.65838,6.15206 -11.60583,7.98035 -3.83544,2.58624 -5.04585,8.89723 -5.02503,11.75267 0.0106,1.44746 0.23925,2.92712 0.70839,4.39616 2.65482,8.31222 17.52959,16.02633 19.80999,15.37386 1.16805,-0.33418 0.67457,-4.92531 1.86296,-10.26146 0.38846,0.79621 0.84555,1.56873 1.38604,2.29863 0.87895,1.18561 1.96124,2.2867 3.23997,3.2565 7.23542,5.48732 24.4174,4.25973 25.9484,2.56163 1.43139,-1.58757 -0.4487,-17.334 -7.6829,-22.82042 -0.2419,-0.18386 -0.48958,-0.35786 -0.73964,-0.52724 0.45644,-0.0386 0.90978,-0.13043 1.37398,-0.14904 6.98464,-1.4973 29.59114,-21.02381 28.91898,-24.0531 z"
         sodipodi:nodetypes="sscsscsssscccssscsssscss" />
      <path
         style="fill:#0b280b;stroke-width:1.37241;stroke-linecap:round"
         d="m 39.15461,35.69314 c -1.55724,2.09638 0.58801,3.95504 3.27856,3.25564 4.93135,-1.28192 13.25349,2.08313 16.14688,3.55284 26.09676,13.25587 22.57711,11.29878 24.80266,12.94427 1.78097,1.31546 6.7861,5.50242 8.41864,9.765 0.41327,1.07904 0.9225,3.36141 1.29447,5.67061 0.52531,3.26108 -0.32874,5.90736 1.14647,5.73193 1.69325,-0.20136 2.17278,-4.63392 2.03587,-7.39177 -0.1369,-2.75787 -1.02444,-5.77889 -2.56215,-8.90549 C 90.64057,54.06297 76.53837,48.3798 68.96558,42.75457 65.2371,39.98498 57.74362,34.15648 55.96659,30.34896 c -1.83224,-3.92578 3.05188,-8.90812 -1.43104,-6.37609 -0.80799,0.45636 -5.59376,5.62036 -8.27361,6.28587 -1.11893,0.27787 -2.12241,1.13671 -3.1983,1.92634 -1.50086,1.10152 -3.00199,2.28699 -3.90903,3.50806 z"
         id="path11-9"
         sodipodi:nodetypes="sssssssssssssss" />
      <ellipse
         style="fill:#45056c;fill-opacity:1;stroke:none;stroke-width:0.79375;stroke-linecap:round;stroke-opacity:0.4"
         id="path1-9-0-85"
         cx="93.030144"
         cy="118.64262"
         rx="14.192693"
         ry="13.78131" />
      <ellipse
         style="fill:#45056c;fill-opacity:1;stroke:none;stroke-width:0.79375;stroke-linecap:round;stroke-opacity:0.4"
         id="path1-9-0-85-2"
         cx="93.072731"
         cy="108.61777"
         rx="14.192693"
         ry="13.78131" />
      <ellipse
         style="fill:#45056c;fill-opacity:1;stroke:none;stroke-width:0.79375;stroke-linecap:round;stroke-opacity:0.4"
         id="path1-9-0"
         cx="102.60957"
         cy="68.805763"
         rx="14.192693"
         ry="13.78131" />
      <ellipse
         style="fill:#630426;fill-opacity:1;stroke:none;stroke-width:0.79375;stroke-linecap:round;stroke-opacity:0.4"
         id="path1-5-9-1"
         cx="117.12051"
         cy="79.489662"
         rx="14.192693"
         ry="13.78131" />
      <ellipse
         style="fill:#8f08a6;fill-opacity:1;stroke:none;stroke-width:0.79375;stroke-linecap:round;stroke-opacity:0.4"
         id="path1-7-8-2"
         cx="71.189201"
         cy="88.921425"
         rx="14.192693"
         ry="13.78131"
         inkscape:transform-center-x="-176.68874"
         inkscape:transform-center-y="-12.135781" />
      <ellipse
         style="fill:#8bbd0b;fill-opacity:1;stroke:none;stroke-width:0.79375;stroke-linecap:round;stroke-opacity:0.4"
         id="path1-5-6-9"
         cx="75.558617"
         cy="105.38584"
         rx="14.192693"
         ry="13.78131" />
      <ellipse
         style="fill:#a5d32a;fill-opacity:1;stroke:none;stroke-width:0.639699;stroke-linecap:round;stroke-opacity:0.4"
         id="path2-3-18-1-2-0"
         ry="3.0231173"
         rx="4.5745025"
         cy="120.8212"
         cx="-7.6359406"
         transform="matrix(0.82581339,-0.56394347,0.63436581,0.773033,0,0)" />
      <ellipse
         style="fill:#8b0635;fill-opacity:1;stroke:none;stroke-width:0.778975;stroke-linecap:round;stroke-opacity:0.4"
         id="path1-5-9-0-1"
         cx="103.93501"
         cy="112.47636"
         rx="14.089848"
         ry="13.369927" />
      <ellipse
         style="fill:#65089e;fill-opacity:1;stroke:none;stroke-width:0.79375;stroke-linecap:round;stroke-opacity:0.4"
         id="path1-9-0-8"
         cx="79.272072"
         cy="68.579536"
         rx="14.192693"
         ry="13.78131" />
      <ellipse
         style="fill:#940acc;fill-opacity:1;stroke:none;stroke-width:0.660512;stroke-linecap:round;stroke-opacity:0.4"
         id="path2-3-18-1-2-4-4"
         ry="2.9493067"
         rx="4.9990768"
         cy="82.322472"
         cx="54.401203"
         transform="matrix(0.93851715,-0.34523262,0.28414676,0.9587808,0,0)" />
      <ellipse
         style="fill:#459a08;fill-opacity:1;stroke:none;stroke-width:0.79375;stroke-linecap:round;stroke-opacity:0.4"
         id="path1-5"
         cx="94.155556"
         cy="88.508644"
         rx="14.192693"
         ry="13.78131" />
      <ellipse
         style="fill:#65089e;fill-opacity:1;stroke:none;stroke-width:0.79375;stroke-linecap:round;stroke-opacity:0.4"
         id="path1-9-0-8-1"
         cx="116.42381"
         cy="101.4195"
         rx="14.192693"
         ry="13.78131" />
      <ellipse
         style="fill:#8f08a6;fill-opacity:1;stroke:none;stroke-width:0.79375;stroke-linecap:round;stroke-opacity:0.4"
         id="path1-7-8-2-3"
         cx="78.938301"
         cy="128.44936"
         rx="14.192693"
         ry="13.78131"
         inkscape:transform-center-x="-176.68874"
         inkscape:transform-center-y="-12.135781" />
      <ellipse
         style="fill:#6abc1a;fill-opacity:1;stroke:none;stroke-width:0.660512;stroke-linecap:round;stroke-opacity:0.4"
         id="path2-3-18-1-2"
         ry="2.9493067"
         rx="4.9990768"
         cy="111.31151"
         cx="52.743328"
         transform="matrix(0.89932014,-0.43729085,0.37853571,0.92558669,0,0)" />
      <ellipse
         style="fill:#bd0acc;fill-opacity:1;stroke:none;stroke-width:0.660512;stroke-linecap:round;stroke-opacity:0.4"
         id="path2-3-18-1-2-4"
         ry="2.9493067"
         rx="4.9990768"
         cy="139.05258"
         cx="37.957966"
         transform="matrix(0.93851715,-0.34523262,0.28414676,0.9587808,0,0)" />
      <ellipse
         style="fill:#940acc;fill-opacity:1;stroke:none;stroke-width:0.660512;stroke-linecap:round;stroke-opacity:0.4"
         id="path2-3-18-1-2-4-4-6"
         ry="2.9493067"
         rx="4.9990768"
         cy="126.5075"
         cx="81.436119"
         transform="matrix(0.93851715,-0.34523262,0.28414676,0.9587808,0,0)" />
      <ellipse
         style="fill:#99081e;fill-opacity:1;stroke:none;stroke-width:0.660512;stroke-linecap:round;stroke-opacity:0.4"
         id="path2-3-18-1-2-4-4-6-1"
         ry="2.9493067"
         rx="4.9990768"
         cy="106.50436"
         cx="87.948021"
         transform="matrix(0.93851715,-0.34523262,0.28414676,0.9587808,0,0)" />
    </g>
  </g>
</svg>
